<?xml version="1.0" encoding="utf-8"?>
<!-- Generator: Adobe Illustrator 16.0.0, SVG Export Plug-In . SVG Version: 6.00 Build 0)  -->
<!DOCTYPE svg PUBLIC "-//W3C//DTD SVG 1.1//EN" "http://www.w3.org/Graphics/SVG/1.1/DTD/svg11.dtd">
<svg version="1.1" xmlns="http://www.w3.org/2000/svg" xmlns:xlink="http://www.w3.org/1999/xlink" x="0px" y="0px"
	 width="2745.068px" height="1337.929px" viewBox="0 0 2745.068 1337.929" enable-background="new 0 0 2745.068 1337.929"
	 xml:space="preserve">
<g id="Tagline">
	<g id="Loi_1901_009649">
		<path fill="#009649" d="M2110.217,1322.013v-112.791h22.963v93.63h57.092v19.161H2110.217z"/>
		<path fill="#009649" d="M2201.979,1265.851c0-11.58,1.736-21.307,5.199-29.166c2.59-5.793,6.117-10.986,10.589-15.591
			c4.478-4.604,9.378-8.015,14.704-10.239c7.085-3.002,15.253-4.502,24.512-4.502c16.756,0,30.16,5.2,40.216,15.597
			c10.062,10.392,15.09,24.848,15.09,43.357c0,18.358-4.989,32.726-14.97,43.092c-9.979,10.371-23.321,15.552-40.026,15.552
			c-16.913,0-30.357-5.155-40.338-15.476C2206.977,1298.158,2201.979,1283.949,2201.979,1265.851z M2225.645,1265.073
			c0,12.879,2.969,22.644,8.914,29.286c5.952,6.644,13.5,9.968,22.652,9.968c9.155,0,16.666-3.299,22.535-9.892
			c5.87-6.593,8.803-16.483,8.803-29.667c0-13.032-2.857-22.759-8.568-29.166c-5.719-6.415-13.305-9.625-22.77-9.625
			c-9.462,0-17.092,3.248-22.879,9.739C2228.537,1242.207,2225.645,1251.99,2225.645,1265.073z"/>
		<path fill="#009649" d="M2329.512,1322.013v-113.716h22.962v113.716H2329.512z"/>
		<path fill="#009649" d="M2469.45,1322.013h-21.802v-82.149c-7.959,7.446-17.345,12.957-28.153,16.522v-19.777
			c5.686-1.862,11.866-5.395,18.534-10.588c6.676-5.198,11.252-11.265,13.735-18.193h17.686V1322.013z"/>
		<path fill="#009649" d="M2502.492,1295.715l21.101-2.323c0.519,4.292,1.861,7.472,4.033,9.536c2.171,2.07,5.046,3.102,8.611,3.102
			c4.503,0,8.327-2.063,11.481-6.205c3.153-4.135,5.173-12.715,6.054-25.748c-5.485,6.359-12.337,9.538-20.562,9.538
			c-8.942,0-16.66-3.451-23.151-10.354s-9.739-15.89-9.739-26.957c0-11.532,3.426-20.827,10.283-27.889
			c6.852-7.061,15.578-10.588,26.178-10.588c11.531,0,20.999,4.46,28.389,13.381c7.396,8.924,11.094,23.595,11.094,44.022
			c0,20.789-3.851,35.785-11.556,44.991c-7.707,9.208-17.736,13.805-30.099,13.805c-8.896,0-16.083-2.362-21.568-7.093
			C2507.565,1312.197,2504.044,1305.13,2502.492,1295.715z M2551.828,1248.089c0-7.034-1.615-12.486-4.846-16.369
			c-3.235-3.881-6.971-5.818-11.207-5.818c-4.033,0-7.383,1.589-10.049,4.774c-2.659,3.179-3.997,8.391-3.997,15.628
			c0,7.345,1.45,12.733,4.345,16.172c2.9,3.438,6.516,5.161,10.859,5.161c4.192,0,7.72-1.659,10.595-4.963
			C2550.397,1259.36,2551.828,1254.497,2551.828,1248.089z"/>
		<path fill="#009649" d="M2627.227,1207.827c11.019,0,19.631,3.934,25.837,11.791c7.388,9.31,11.088,24.748,11.088,46.309
			c0,21.518-3.726,36.976-11.171,46.392c-6.156,7.757-14.735,11.632-25.754,11.632c-11.063,0-19.984-4.249-26.762-12.759
			c-6.775-8.505-10.161-23.671-10.161-45.498c0-21.403,3.724-36.816,11.169-46.227
			C2607.629,1211.703,2616.215,1207.827,2627.227,1207.827z M2627.227,1225.901c-2.634,0-4.99,0.841-7.055,2.52
			c-2.07,1.686-3.672,4.698-4.813,9.043c-1.501,5.635-2.248,15.12-2.248,28.463s0.671,22.513,2.014,27.501
			c1.35,4.99,3.04,8.314,5.085,9.968c2.039,1.653,4.383,2.483,7.017,2.483c2.641,0,4.99-0.843,7.061-2.521
			c2.071-1.679,3.674-4.691,4.813-9.036c1.495-5.585,2.247-15.052,2.247-28.395s-0.671-22.505-2.02-27.495
			c-1.341-4.988-3.04-8.325-5.079-10.011C2632.204,1226.742,2629.867,1225.901,2627.227,1225.901z"/>
		<path fill="#009649" d="M2734.509,1322.013h-21.802v-82.149c-7.961,7.446-17.345,12.957-28.153,16.522v-19.777
			c5.687-1.862,11.867-5.395,18.534-10.588c6.674-5.198,11.252-11.265,13.735-18.193h17.686V1322.013z"/>
	</g>
	<g id="Association_Nationale_1D4E9E">
		<path fill="#1D4E9E" d="M91.076,1296.879H46.009l-13.652,25.134H8.306l64.308-113.716h25.985l18.465,113.716H94.875
			L91.076,1296.879z M88.208,1277.952l-6.595-45.771l-27.46,45.771H88.208z"/>
		<path fill="#1D4E9E" d="M134.902,1285.164l22.262-1.158c0.31,7.08,1.526,11.867,3.647,14.349
			c3.413,4.035,9.724,6.049,18.927,6.049c7.653,0,13.188-1.369,16.601-4.111c3.413-2.74,5.12-6.052,5.12-9.928
			c0-3.362-1.396-6.206-4.189-8.537c-1.966-1.702-7.358-4.47-16.173-8.295c-8.817-3.831-15.257-7.021-19.317-9.581
			c-4.059-2.558-7.25-5.882-9.581-9.966c-2.324-4.085-3.489-8.872-3.489-14.355c0-9.562,3.464-17.503,10.395-23.811
			c6.931-6.313,16.961-9.467,30.097-9.467c13.343,0,23.671,3.128,30.991,9.391c7.316,6.257,11.338,14.577,12.06,24.976
			l-22.416,1.006c-0.57-5.427-2.533-9.594-5.896-12.486c-3.362-2.895-8.327-4.345-14.894-4.345c-6.465,0-11.082,1.14-13.846,3.413
			c-2.767,2.274-4.151,5.149-4.151,8.611c0,3.256,1.267,5.947,3.799,8.068c2.537,2.173,8.147,5.142,16.834,8.916
			c13.083,5.643,21.41,10.214,24.979,13.734c5.325,5.167,7.991,11.816,7.991,19.935c0,10.031-3.971,18.604-11.908,25.716
			c-7.941,7.11-18.993,10.663-33.162,10.663c-9.774,0-18.243-1.641-25.406-4.927c-7.162-3.279-12.218-7.845-15.163-13.69
			C136.064,1299.489,134.696,1292.77,134.902,1285.164z"/>
		<path fill="#1D4E9E" d="M240.867,1285.164l22.262-1.158c0.31,7.08,1.525,11.867,3.647,14.349
			c3.413,4.035,9.723,6.049,18.927,6.049c7.652,0,13.188-1.369,16.601-4.111c3.413-2.74,5.119-6.052,5.119-9.928
			c0-3.362-1.396-6.206-4.188-8.537c-1.966-1.702-7.358-4.47-16.173-8.295c-8.817-3.831-15.258-7.021-19.316-9.581
			c-4.06-2.558-7.251-5.882-9.581-9.966c-2.324-4.085-3.489-8.872-3.489-14.355c0-9.562,3.464-17.503,10.395-23.811
			c6.931-6.313,16.961-9.467,30.098-9.467c13.342,0,23.67,3.128,30.99,9.391c7.317,6.257,11.338,14.577,12.061,24.976l-22.417,1.006
			c-0.57-5.427-2.533-9.594-5.896-12.486c-3.362-2.895-8.327-4.345-14.894-4.345c-6.465,0-11.082,1.14-13.845,3.413
			c-2.769,2.274-4.151,5.149-4.151,8.611c0,3.256,1.267,5.947,3.799,8.068c2.536,2.173,8.147,5.142,16.835,8.916
			c13.083,5.643,21.409,10.214,24.978,13.734c5.325,5.167,7.991,11.816,7.991,19.935c0,10.031-3.97,18.604-11.908,25.716
			c-7.94,7.11-18.993,10.663-33.161,10.663c-9.774,0-18.244-1.641-25.406-4.927c-7.162-3.279-12.219-7.845-15.163-13.69
			C242.028,1299.489,240.661,1292.77,240.867,1285.164z"/>
		<path fill="#1D4E9E" d="M350.628,1277.408c0-6.72,1.007-13.805,3.024-21.251c2.638-9.98,6.658-18.643,12.063-25.989
			c5.401-7.345,12.218-13.145,20.437-17.414c8.226-4.267,17.585-6.401,28.084-6.401c14.063,0,25.427,4.37,34.092,13.114
			c8.662,8.738,12.992,20.32,12.992,34.753c0,11.992-2.816,23.605-8.456,34.827c-5.637,11.22-13.288,19.858-22.962,25.905
			c-9.668,6.055-20.605,9.074-32.811,9.074c-10.601,0-19.497-2.399-26.685-7.212c-7.187-4.808-12.281-10.766-15.283-17.876
			C352.126,1291.827,350.628,1284.651,350.628,1277.408z M373.741,1276.945c0,7.808,2.381,14.349,7.137,19.624
			c4.759,5.274,11.019,7.915,18.775,7.915c6.307,0,12.37-2.082,18.189-6.25c5.817-4.159,10.626-10.468,14.429-18.927
			c3.799-8.454,5.699-16.685,5.699-24.702c0-8.947-2.404-15.971-7.213-21.063c-4.809-5.09-10.936-7.642-18.383-7.642
			c-11.431,0-20.726,5.325-27.888,15.981C377.322,1252.533,373.741,1264.223,373.741,1276.945z"/>
		<path fill="#1D4E9E" d="M549.21,1281.055l23.582,3.571c-4.604,12.773-11.507,22.53-20.711,29.28
			c-9.206,6.75-19.987,10.12-32.348,10.12c-13.912,0-24.785-4.186-32.618-12.563c-7.836-8.378-11.753-20.529-11.753-36.462
			c0-12.924,2.625-24.753,7.874-35.485c5.248-10.727,12.525-18.94,21.835-24.626c9.308-5.693,19.445-8.537,30.408-8.537
			c12.31,0,22.265,3.3,29.866,9.891c7.603,6.593,12.075,15.578,13.421,26.957l-22.421,2.172c-1.239-6.616-3.634-11.416-7.174-14.387
			c-3.542-2.977-8.26-4.464-14.154-4.464c-6.466,0-12.504,1.97-18.115,5.896c-5.614,3.932-10.097,10.075-13.459,18.428
			s-5.041,16.685-5.041,25.012c0,9.106,2.183,16.134,6.555,21.099c4.368,4.965,9.812,7.448,16.328,7.448
			c6.05,0,11.597-1.963,16.638-5.896C542.967,1294.581,546.729,1288.762,549.21,1281.055z"/>
		<path fill="#1D4E9E" d="M580.55,1322.013l23.813-113.716h23.35l-23.739,113.716H580.55z"/>
		<path fill="#1D4E9E" d="M700.164,1296.879h-45.067l-13.652,25.134h-24.052l64.31-113.716h25.983l18.466,113.716h-22.188
			L700.164,1296.879z M697.294,1277.952l-6.594-45.771l-27.461,45.771H697.294z"/>
		<path fill="#1D4E9E" d="M778.12,1322.013h-23.426l19.858-94.712h-33.355l3.953-19.004h89.598l-3.957,19.004h-32.892
			L778.12,1322.013z"/>
		<path fill="#1D4E9E" d="M824.666,1322.013l23.813-113.716h23.351l-23.74,113.716H824.666z"/>
		<path fill="#1D4E9E" d="M877.181,1277.408c0-6.72,1.006-13.805,3.023-21.251c2.638-9.98,6.657-18.643,12.063-25.989
			c5.402-7.345,12.219-13.145,20.438-17.414c8.226-4.267,17.586-6.401,28.085-6.401c14.063,0,25.427,4.37,34.089,13.114
			c8.663,8.738,12.995,20.32,12.995,34.753c0,11.992-2.818,23.605-8.458,34.827c-5.635,11.22-13.288,19.858-22.96,25.905
			c-9.67,6.055-20.605,9.074-32.812,9.074c-10.601,0-19.497-2.399-26.684-7.212c-7.188-4.808-12.282-10.766-15.284-17.876
			C878.678,1291.827,877.181,1284.651,877.181,1277.408z M900.293,1276.945c0,7.808,2.382,14.349,7.137,19.624
			c4.76,5.274,11.019,7.915,18.776,7.915c6.307,0,12.369-2.082,18.189-6.25c5.815-4.159,10.626-10.468,14.427-18.927
			c3.801-8.454,5.7-16.685,5.7-24.702c0-8.947-2.403-15.971-7.212-21.063c-4.811-5.09-10.938-7.642-18.384-7.642
			c-11.43,0-20.725,5.325-27.887,15.981C903.875,1252.533,900.293,1264.223,900.293,1276.945z"/>
		<path fill="#1D4E9E" d="M1084.295,1322.013H1062.5l-30.719-76.405l-15.983,76.405h-21.795l23.736-113.716h21.874l30.795,76.095
			l15.903-76.095h21.721L1084.295,1322.013z"/>
		<path fill="#1D4E9E" d="M1243.16,1322.013h-21.795l-30.719-76.405l-15.982,76.405h-21.797l23.737-113.716h21.875l30.794,76.095
			l15.904-76.095h21.721L1243.16,1322.013z"/>
		<path fill="#1D4E9E" d="M1341.441,1296.879h-45.066l-13.653,25.134h-24.05l64.309-113.716h25.983l18.465,113.716h-22.188
			L1341.441,1296.879z M1338.574,1277.952l-6.597-45.771l-27.461,45.771H1338.574z"/>
		<path fill="#1D4E9E" d="M1419.397,1322.013h-23.422l19.858-94.712h-33.354l3.951-19.004h89.598l-3.959,19.004h-32.89
			L1419.397,1322.013z"/>
		<path fill="#1D4E9E" d="M1465.947,1322.013l23.811-113.716h23.354l-23.74,113.716H1465.947z"/>
		<path fill="#1D4E9E" d="M1518.462,1277.408c0-6.72,1.006-13.805,3.02-21.251c2.642-9.98,6.661-18.643,12.063-25.989
			c5.408-7.345,12.223-13.145,20.44-17.414c8.226-4.267,17.586-6.401,28.085-6.401c14.063,0,25.431,4.37,34.093,13.114
			c8.657,8.738,12.995,20.32,12.995,34.753c0,11.992-2.826,23.605-8.462,34.827c-5.636,11.22-13.292,19.858-22.96,25.905
			c-9.67,6.055-20.605,9.074-32.815,9.074c-10.601,0-19.489-2.399-26.684-7.212c-7.187-4.808-12.278-10.766-15.28-17.876
			C1519.963,1291.827,1518.462,1284.651,1518.462,1277.408z M1541.574,1276.945c0,7.808,2.382,14.349,7.137,19.624
			c4.762,5.274,11.019,7.915,18.774,7.915c6.308,0,12.375-2.082,18.188-6.25c5.818-4.159,10.631-10.468,14.43-18.927
			c3.799-8.454,5.699-16.685,5.699-24.702c0-8.947-2.406-15.971-7.213-21.063c-4.805-5.09-10.936-7.642-18.382-7.642
			c-11.43,0-20.726,5.325-27.889,15.981C1545.158,1252.533,1541.574,1264.223,1541.574,1276.945z"/>
		<path fill="#1D4E9E" d="M1725.574,1322.013h-21.797l-30.719-76.405l-15.983,76.405h-21.794l23.739-113.716h21.871l30.794,76.095
			l15.9-76.095h21.721L1725.574,1322.013z"/>
		<path fill="#1D4E9E" d="M1823.856,1296.879h-45.066l-13.652,25.134h-24.05l64.312-113.716h25.979l18.465,113.716h-22.188
			L1823.856,1296.879z M1820.989,1277.952l-6.6-45.771l-27.456,45.771H1820.989z"/>
		<path fill="#1D4E9E" d="M1864.738,1322.013l23.816-113.716h23.348l-19.783,94.712h57.871l-3.957,19.004H1864.738z"/>
		<path fill="#1D4E9E" d="M1961.154,1322.013l23.74-113.716h84.314l-3.957,19.004h-60.893l-5.427,25.829h58.872l-3.952,19.004
			h-58.877l-7.136,30.875h66.165l-4.033,19.004H1961.154z"/>
	</g>
</g>
<g id="Underline">
	
		<rect id="Square_009649_1_" x="97.355" y="1145.132" fill-rule="evenodd" clip-rule="evenodd" fill="#009649" width="2634.627" height="24.315"/>
</g>
<g id="Headline">
	<g id="DVO_1D4E9E">
		<path fill="#1D4E9E" d="M1985.363,644.22c-128.027,0-231.813,103.786-231.813,231.814c0,128.026,103.786,231.813,231.813,231.813
			c128.026,0,231.814-103.787,231.814-231.813C2217.178,748.006,2113.39,644.22,1985.363,644.22z M1985.376,1017.067
			c-77.9,0-141.046-63.141-141.046-141.033c0-77.896,63.146-141.033,141.046-141.033c77.888,0,141.021,63.138,141.021,141.033
			C2126.396,953.927,2063.264,1017.067,1985.376,1017.067z"/>
		<path fill="#1D4E9E" d="M950.036,644.22h-90.234v463.628h90.234c128.028,0,231.814-103.787,231.814-231.813
			C1181.851,748.006,1078.064,644.22,950.036,644.22z M950.049,1017.067c-0.003,0-0.009,0-0.013,0V735.001c0.004,0,0.01,0,0.013,0
			c77.888,0,141.021,63.138,141.021,141.033C1091.07,953.927,1027.937,1017.067,950.049,1017.067z"/>
		<polygon fill="#1D4E9E" points="1475.813,1004.573 1306.139,644.22 1205.632,644.22 1423.938,1107.848 1427.188,1107.848 
			1524.445,1107.848 1527.693,1107.848 1746.002,644.22 1645.494,644.22 		"/>
	</g>
	<g id="E_009649">
		<polygon fill="#009649" points="337.814,644.22 293.505,735.001 753.89,735.001 753.89,644.22 		"/>
		<polygon fill="#009649" points="591.782,831.181 249.194,831.181 204.884,921.962 591.782,921.962 		"/>
		<polygon fill="#009649" points="113.024,1107.848 753.89,1107.848 753.89,1017.067 157.334,1017.067 		"/>
	</g>
</g>
<g id="Icons">
	<g id="Green_x5F_men_009649_1_">
		<path fill-rule="evenodd" clip-rule="evenodd" fill="#009649" d="M2700.434,878.124c-1.701-13.627-6.503-28.572-14.684-39.413
			c-42.039-55.756-69.137-118.188-85.531-185.424c-14.488-59.369-31.604-117.18-70.516-166.254
			c-5.998-7.559-6.771-19.267-9.949-29.051c2.323-1.858,4.662-3.714,6.985-5.568c14.392,8.916,29.489,16.892,43.035,26.953
			c28.976,21.507,47.669,50.824,62.188,83.577c4.599,10.368,14.406,18.428,21.827,27.543c3.786-1.929,7.575-3.862,11.361-5.799
			c-3.464-18.376-3.42-38.358-10.987-54.846c-33.256-72.449-93.674-112.432-167.831-135.224
			c-69.08-21.233-138.06-42.857-206.599-65.76c-15.509-5.182-32.694-10.796-46.08-19.767c-10.469,8.255-14.971,19.381-18.086,30.637
			c38.33,21.723,80.459,37.384,120.314,56.827c16.357,7.984,38,14.357,46.245,28.07c28.103,46.749,51.304,96.439,78.223,148.571
			c-32.138,2.42-56.915,3.811-81.593,6.258c-33.529,3.32-64.082,12.759-64.412,53.015c-0.094,11.673-4.514,23.33-7.072,34.969
			c-5.301,24.057-10.949,48.038-15.926,72.163c-3.686,17.858,8.402,43.357,23.506,45.423c19.236,2.62,24.644-13.343,28.748-28.021
			c8.783-31.401,18.548-62.658,24.849-94.578c3.591-18.209,10.979-23.315,28.806-23.315c35.371,0.006,70.731-3.553,106.098-3.572
			c6.966,0,16.945,7.805,20.415,14.622c25.088,49.214,48.063,99.524,73.336,148.645c16.419,31.939,33.751,63.778,54.545,92.896
			c6.79,9.498,25.621,11.403,39.451,13.64C2692.975,905.643,2701.562,887.114,2700.434,878.124z"/>
		<circle fill-rule="evenodd" clip-rule="evenodd" fill="#009649" cx="2440.131" cy="302.173" r="63.222"/>
	</g>
	<g id="Blue_x5F_men_1D4E9E_1_">
		<path fill-rule="evenodd" clip-rule="evenodd" fill="#1D4E9E" d="M2223.016,300.354c-45.384-47.597-90.382-96.222-129.655-148.84
			c-65.906-88.33-192.21-123.405-295.46-59.832c-15.723,9.678-28.691,24.354-41.242,38.241c-2.888,3.188-0.767,14.203,2.748,18.763
			c2.598,3.372,11.468,3.543,17.061,2.527c6.079-1.106,12.809-4,17.185-8.246c37.613-36.464,84.886-27.908,130.11-28.134
			c5.839-0.032,11.703,4.968,17.561,7.644c1.431,3.008,2.868,6.013,4.3,9.021c-11.526,8.823-23.252,17.404-34.537,26.522
			c-43.8,35.392-74.949,79.638-97.557,131.386c-25.208,57.727-54.774,113.532-81.25,170.733
			c-15.272,33.017-39.335,63.158-35.149,103.2c1.811,17.338,10.567,22.515,23.91,13.836c15.128-9.83,31.952-20.624,41.211-35.303
			c44.244-70.073,86.164-141.606,129.674-213.889c23.194,19.327,44.109,38.033,66.351,55.014
			c41.907,31.998,35.757,39.736,19.712,87.957c-8.246,24.768-13.64,50.646-18.287,76.393c-2.375,13.189-2.148,29.001,15.311,33.368
			c18.585,4.647,29.034-8.489,34.949-22.752c12.188-29.408,24.004-59.19,32.725-89.751c9.01-31.602,19.585-64.608-6.117-94.649
			c-17.731-20.72-36.57-40.703-52.115-62.966c-8.41-12.041-18.749-31.003-14.779-41.971c16.299-44.981,90.387-57.779,126.139-25.551
			c33.969,30.604,66.775,63.791,105.079,87.932c4.812,3.032,9.721,5.914,14.679,8.722c3.115-11.256,7.617-22.382,18.086-30.637
			C2229.753,306.479,2226.124,303.619,2223.016,300.354z"/>
		<circle fill-rule="evenodd" clip-rule="evenodd" fill="#1D4E9E" cx="2128.886" cy="75.222" r="63.222"/>
	</g>
</g>
</svg>
